<mxfile host="app.diagrams.net" modified="2023-01-06T08:47:20.194Z" agent="5.0 (Windows)" etag="dIM4r1kxQbropJnkNdRB" version="20.5.3" type="github">
  <diagram id="4J2Np3dGTfp2tVZBYk7x" name="Page-1">
    <mxGraphModel dx="813" dy="414" grid="1" gridSize="10" guides="1" tooltips="1" connect="1" arrows="1" fold="1" page="1" pageScale="1" pageWidth="1100" pageHeight="1700" math="0" shadow="0">
      <root>
        <mxCell id="0" />
        <mxCell id="1" parent="0" />
        <mxCell id="ai7vC3b9gsCnExHOe_Bt-1" value="&lt;font style=&quot;font-size: 14px;&quot;&gt;ioctl calls on socket fds&lt;/font&gt;" style="rounded=1;whiteSpace=wrap;html=1;fontSize=14;fillColor=#f5f5f5;strokeColor=#666666;gradientColor=#b3b3b3;" vertex="1" parent="1">
          <mxGeometry x="320" y="400" width="180" height="40" as="geometry" />
        </mxCell>
        <mxCell id="ai7vC3b9gsCnExHOe_Bt-2" value="netlink socket" style="rounded=1;whiteSpace=wrap;html=1;fontSize=14;fillColor=#f5f5f5;strokeColor=#666666;gradientColor=#b3b3b3;" vertex="1" parent="1">
          <mxGeometry x="540" y="400" width="270" height="40" as="geometry" />
        </mxCell>
        <mxCell id="ai7vC3b9gsCnExHOe_Bt-3" value="cfg80211" style="rounded=1;whiteSpace=wrap;html=1;fontSize=14;fillColor=#f8cecc;strokeColor=#b85450;" vertex="1" parent="1">
          <mxGeometry x="420" y="520" width="200" height="50" as="geometry" />
        </mxCell>
        <mxCell id="ai7vC3b9gsCnExHOe_Bt-4" value="WiFi driver" style="rounded=1;whiteSpace=wrap;html=1;fontSize=14;fillColor=#f8cecc;strokeColor=#b85450;" vertex="1" parent="1">
          <mxGeometry x="420" y="710" width="200" height="50" as="geometry" />
        </mxCell>
        <mxCell id="ai7vC3b9gsCnExHOe_Bt-5" value="mac80211" style="rounded=1;whiteSpace=wrap;html=1;fontSize=14;fillColor=#f8cecc;strokeColor=#b85450;" vertex="1" parent="1">
          <mxGeometry x="380" y="620" width="110" height="40" as="geometry" />
        </mxCell>
        <mxCell id="ai7vC3b9gsCnExHOe_Bt-6" value="" style="endArrow=classic;startArrow=classic;html=1;rounded=0;fontSize=14;exitX=0.25;exitY=0;exitDx=0;exitDy=0;" edge="1" parent="1" source="ai7vC3b9gsCnExHOe_Bt-3">
          <mxGeometry width="50" height="50" relative="1" as="geometry">
            <mxPoint x="420" y="510" as="sourcePoint" />
            <mxPoint x="470" y="460" as="targetPoint" />
          </mxGeometry>
        </mxCell>
        <mxCell id="ai7vC3b9gsCnExHOe_Bt-7" value="wext" style="text;html=1;align=center;verticalAlign=middle;resizable=0;points=[];autosize=1;strokeColor=none;fillColor=none;fontSize=12;" vertex="1" parent="1">
          <mxGeometry x="460" y="474" width="50" height="30" as="geometry" />
        </mxCell>
        <mxCell id="ai7vC3b9gsCnExHOe_Bt-8" value="" style="endArrow=classic;startArrow=classic;html=1;rounded=0;fontSize=14;exitX=0.25;exitY=0;exitDx=0;exitDy=0;" edge="1" parent="1">
          <mxGeometry width="50" height="50" relative="1" as="geometry">
            <mxPoint x="600" y="519" as="sourcePoint" />
            <mxPoint x="600" y="459" as="targetPoint" />
          </mxGeometry>
        </mxCell>
        <mxCell id="ai7vC3b9gsCnExHOe_Bt-9" value="" style="endArrow=classic;startArrow=classic;html=1;rounded=0;fontSize=14;exitX=0.25;exitY=0;exitDx=0;exitDy=0;" edge="1" parent="1">
          <mxGeometry width="50" height="50" relative="1" as="geometry">
            <mxPoint x="470" y="520" as="sourcePoint" />
            <mxPoint x="470" y="460" as="targetPoint" />
          </mxGeometry>
        </mxCell>
        <mxCell id="ai7vC3b9gsCnExHOe_Bt-10" value="nl80211" style="text;html=1;align=center;verticalAlign=middle;resizable=0;points=[];autosize=1;strokeColor=none;fillColor=none;fontSize=12;" vertex="1" parent="1">
          <mxGeometry x="540" y="474" width="70" height="30" as="geometry" />
        </mxCell>
        <mxCell id="ai7vC3b9gsCnExHOe_Bt-11" value="" style="endArrow=classic;startArrow=classic;html=1;rounded=0;fontSize=14;exitX=0.25;exitY=0;exitDx=0;exitDy=0;" edge="1" parent="1">
          <mxGeometry width="50" height="50" relative="1" as="geometry">
            <mxPoint x="574.4100000000001" y="710" as="sourcePoint" />
            <mxPoint x="574.4100000000001" y="570" as="targetPoint" />
          </mxGeometry>
        </mxCell>
        <mxCell id="ai7vC3b9gsCnExHOe_Bt-17" value="FullMAC&lt;br style=&quot;font-size: 14px;&quot;&gt;HardMAC" style="text;html=1;align=left;verticalAlign=middle;resizable=0;points=[];autosize=1;strokeColor=none;fillColor=none;fontSize=14;fontStyle=1" vertex="1" parent="1">
          <mxGeometry x="590" y="610" width="90" height="50" as="geometry" />
        </mxCell>
        <mxCell id="ai7vC3b9gsCnExHOe_Bt-18" value="SoftMAC" style="text;html=1;align=left;verticalAlign=middle;resizable=0;points=[];autosize=1;strokeColor=none;fillColor=none;fontSize=14;fontStyle=1" vertex="1" parent="1">
          <mxGeometry x="340" y="580" width="80" height="30" as="geometry" />
        </mxCell>
        <mxCell id="ai7vC3b9gsCnExHOe_Bt-19" value="Ethernet driver" style="rounded=1;whiteSpace=wrap;html=1;fontSize=14;fillColor=#f8cecc;strokeColor=#b85450;" vertex="1" parent="1">
          <mxGeometry x="130" y="710" width="150" height="50" as="geometry" />
        </mxCell>
        <mxCell id="ai7vC3b9gsCnExHOe_Bt-20" value="&lt;div&gt;Device agnostic layer&lt;/div&gt;&lt;div&gt;(net_dev)&lt;br&gt;&lt;/div&gt;" style="rounded=1;whiteSpace=wrap;html=1;fontSize=14;fillColor=#f8cecc;strokeColor=#b85450;" vertex="1" parent="1">
          <mxGeometry x="140" y="620" width="140" height="40" as="geometry" />
        </mxCell>
        <mxCell id="ai7vC3b9gsCnExHOe_Bt-24" value="" style="endArrow=classic;startArrow=classic;html=1;rounded=0;dashed=1;fontSize=14;exitX=0.171;exitY=0;exitDx=0;exitDy=0;exitPerimeter=0;" edge="1" parent="1" source="ai7vC3b9gsCnExHOe_Bt-4">
          <mxGeometry width="50" height="50" relative="1" as="geometry">
            <mxPoint x="405" y="710" as="sourcePoint" />
            <mxPoint x="455" y="660" as="targetPoint" />
          </mxGeometry>
        </mxCell>
        <mxCell id="ai7vC3b9gsCnExHOe_Bt-25" value="" style="endArrow=classic;startArrow=classic;html=1;rounded=0;dashed=1;fontSize=14;exitX=0.171;exitY=0;exitDx=0;exitDy=0;exitPerimeter=0;" edge="1" parent="1">
          <mxGeometry width="50" height="50" relative="1" as="geometry">
            <mxPoint x="455.00000000000006" y="620" as="sourcePoint" />
            <mxPoint x="455.8" y="570" as="targetPoint" />
          </mxGeometry>
        </mxCell>
        <mxCell id="ai7vC3b9gsCnExHOe_Bt-27" value="Network protocols" style="rounded=1;whiteSpace=wrap;html=1;fontSize=14;fillColor=#f8cecc;strokeColor=#b85450;" vertex="1" parent="1">
          <mxGeometry x="140" y="540" width="140" height="40" as="geometry" />
        </mxCell>
        <mxCell id="ai7vC3b9gsCnExHOe_Bt-28" value="Network protocols" style="rounded=1;whiteSpace=wrap;html=1;fontSize=14;fillColor=#f8cecc;strokeColor=#b85450;" vertex="1" parent="1">
          <mxGeometry x="140" y="469" width="140" height="40" as="geometry" />
        </mxCell>
        <mxCell id="ai7vC3b9gsCnExHOe_Bt-29" value="System call interface" style="rounded=1;whiteSpace=wrap;html=1;fontSize=14;fillColor=#f5f5f5;strokeColor=#666666;gradientColor=#b3b3b3;" vertex="1" parent="1">
          <mxGeometry x="140" y="400" width="140" height="40" as="geometry" />
        </mxCell>
        <mxCell id="ai7vC3b9gsCnExHOe_Bt-30" value="Date Application" style="rounded=1;whiteSpace=wrap;html=1;fontSize=14;fillColor=#fff2cc;strokeColor=#d6b656;gradientColor=#ffd966;" vertex="1" parent="1">
          <mxGeometry x="150" y="280" width="120" height="50" as="geometry" />
        </mxCell>
        <mxCell id="ai7vC3b9gsCnExHOe_Bt-31" value="" style="endArrow=classic;startArrow=classic;html=1;rounded=0;dashed=1;fontSize=14;exitX=1;exitY=0.5;exitDx=0;exitDy=0;" edge="1" parent="1" source="ai7vC3b9gsCnExHOe_Bt-20">
          <mxGeometry width="50" height="50" relative="1" as="geometry">
            <mxPoint x="330" y="690" as="sourcePoint" />
            <mxPoint x="380" y="640" as="targetPoint" />
          </mxGeometry>
        </mxCell>
        <mxCell id="ai7vC3b9gsCnExHOe_Bt-33" value="" style="endArrow=classic;startArrow=classic;html=1;rounded=0;fontSize=14;exitX=1;exitY=0.5;exitDx=0;exitDy=0;" edge="1" parent="1" source="ai7vC3b9gsCnExHOe_Bt-20">
          <mxGeometry width="50" height="50" relative="1" as="geometry">
            <mxPoint x="370" y="780" as="sourcePoint" />
            <mxPoint x="420" y="740" as="targetPoint" />
          </mxGeometry>
        </mxCell>
        <mxCell id="ai7vC3b9gsCnExHOe_Bt-35" value="data frames" style="text;html=1;align=center;verticalAlign=middle;resizable=0;points=[];autosize=1;strokeColor=none;fillColor=none;fontSize=14;" vertex="1" parent="1">
          <mxGeometry x="280" y="660" width="100" height="30" as="geometry" />
        </mxCell>
        <mxCell id="ai7vC3b9gsCnExHOe_Bt-36" value="Bus Driver" style="rounded=1;whiteSpace=wrap;html=1;fontSize=14;fillColor=#f5f5f5;strokeColor=#666666;gradientColor=#b3b3b3;" vertex="1" parent="1">
          <mxGeometry x="450" y="820" width="140" height="40" as="geometry" />
        </mxCell>
        <mxCell id="ai7vC3b9gsCnExHOe_Bt-37" value="&lt;div align=&quot;left&quot;&gt;&lt;b&gt;WEXT&lt;/b&gt;&lt;/div&gt;&lt;div align=&quot;left&quot;&gt;iwconfig&lt;/div&gt;&lt;div align=&quot;left&quot;&gt;iwlist&lt;br&gt;iwpriv&lt;br&gt;&lt;/div&gt;" style="rounded=1;whiteSpace=wrap;html=1;fontSize=14;align=left;fillColor=#fff2cc;gradientColor=#ffd966;strokeColor=#d6b656;" vertex="1" parent="1">
          <mxGeometry x="405" y="290" width="60" height="70" as="geometry" />
        </mxCell>
        <mxCell id="ai7vC3b9gsCnExHOe_Bt-38" value="ifconfig" style="rounded=1;whiteSpace=wrap;html=1;fontSize=14;align=left;fillColor=#fff2cc;gradientColor=#ffd966;strokeColor=#d6b656;" vertex="1" parent="1">
          <mxGeometry x="340" y="320" width="60" height="40" as="geometry" />
        </mxCell>
        <mxCell id="ai7vC3b9gsCnExHOe_Bt-45" value="dhclient" style="rounded=1;whiteSpace=wrap;html=1;fontSize=14;align=center;fillColor=#fff2cc;gradientColor=#ffd966;strokeColor=#d6b656;" vertex="1" parent="1">
          <mxGeometry x="510" y="320" width="60" height="40" as="geometry" />
        </mxCell>
        <mxCell id="ai7vC3b9gsCnExHOe_Bt-46" value="libnl" style="rounded=1;whiteSpace=wrap;html=1;fontSize=14;align=center;fillColor=#fff2cc;gradientColor=#ffd966;strokeColor=#d6b656;" vertex="1" parent="1">
          <mxGeometry x="580" y="320" width="120" height="40" as="geometry" />
        </mxCell>
        <mxCell id="ai7vC3b9gsCnExHOe_Bt-47" value="dhcpd" style="rounded=1;whiteSpace=wrap;html=1;fontSize=14;align=center;fillColor=#fff2cc;gradientColor=#ffd966;strokeColor=#d6b656;" vertex="1" parent="1">
          <mxGeometry x="710" y="320" width="60" height="40" as="geometry" />
        </mxCell>
        <mxCell id="ai7vC3b9gsCnExHOe_Bt-48" value="wpa_supplicant" style="rounded=1;whiteSpace=wrap;html=1;fontSize=14;align=center;fillColor=#fff2cc;gradientColor=#ffd966;strokeColor=#d6b656;" vertex="1" parent="1">
          <mxGeometry x="460" y="200" width="145" height="40" as="geometry" />
        </mxCell>
        <mxCell id="ai7vC3b9gsCnExHOe_Bt-49" value="&lt;span style=&quot;white-space: pre;&quot;&gt;	&lt;/span&gt;ifup&lt;br&gt;&lt;div&gt;&lt;span style=&quot;white-space: pre;&quot;&gt;	&lt;/span&gt;ifdown&lt;br&gt;&lt;/div&gt;" style="rounded=1;whiteSpace=wrap;html=1;fontSize=14;align=left;fillColor=#fff2cc;gradientColor=#ffd966;strokeColor=#d6b656;" vertex="1" parent="1">
          <mxGeometry x="340" y="200" width="100" height="40" as="geometry" />
        </mxCell>
        <mxCell id="ai7vC3b9gsCnExHOe_Bt-50" value="&lt;div&gt;iw&lt;br&gt;&lt;/div&gt;" style="rounded=1;whiteSpace=wrap;html=1;fontSize=14;align=center;fillColor=#fff2cc;gradientColor=#ffd966;strokeColor=#d6b656;" vertex="1" parent="1">
          <mxGeometry x="620" y="200" width="30" height="40" as="geometry" />
        </mxCell>
        <mxCell id="ai7vC3b9gsCnExHOe_Bt-51" value="hostapd" style="rounded=1;whiteSpace=wrap;html=1;fontSize=14;align=center;fillColor=#fff2cc;gradientColor=#ffd966;strokeColor=#d6b656;" vertex="1" parent="1">
          <mxGeometry x="681" y="200" width="60" height="40" as="geometry" />
        </mxCell>
        <mxCell id="ai7vC3b9gsCnExHOe_Bt-52" value="udev" style="rounded=1;whiteSpace=wrap;html=1;fontSize=14;align=center;fillColor=#fff2cc;gradientColor=#ffd966;strokeColor=#d6b656;" vertex="1" parent="1">
          <mxGeometry x="760" y="200" width="50" height="40" as="geometry" />
        </mxCell>
        <mxCell id="ai7vC3b9gsCnExHOe_Bt-53" value="&lt;div&gt;network mgmt&lt;/div&gt;&lt;div&gt;daemon&lt;br&gt;&lt;/div&gt;" style="rounded=1;whiteSpace=wrap;html=1;fontSize=14;align=center;fillColor=#fff2cc;gradientColor=#ffd966;strokeColor=#d6b656;" vertex="1" parent="1">
          <mxGeometry x="470" y="120" width="130" height="40" as="geometry" />
        </mxCell>
        <mxCell id="ai7vC3b9gsCnExHOe_Bt-54" value="CARD&lt;br&gt;&amp;nbsp; " style="rounded=1;whiteSpace=wrap;html=1;fontSize=14;align=center;fillColor=#fff2cc;gradientColor=#ffd966;strokeColor=#d6b656;" vertex="1" parent="1">
          <mxGeometry x="660" y="120" width="140" height="40" as="geometry" />
        </mxCell>
        <mxCell id="ai7vC3b9gsCnExHOe_Bt-55" value="regulatory.bin" style="rounded=0;whiteSpace=wrap;html=1;fontSize=14;fillColor=#fff2cc;gradientColor=#ffd966;strokeColor=#d6b656;" vertex="1" parent="1">
          <mxGeometry x="680" y="140" width="100" height="20" as="geometry" />
        </mxCell>
        <mxCell id="ai7vC3b9gsCnExHOe_Bt-56" value="" style="endArrow=classic;startArrow=classic;html=1;rounded=0;fontSize=14;exitX=0.367;exitY=-0.054;exitDx=0;exitDy=0;exitPerimeter=0;" edge="1" parent="1">
          <mxGeometry width="50" height="50" relative="1" as="geometry">
            <mxPoint x="639.0899999999999" y="397.84000000000003" as="sourcePoint" />
            <mxPoint x="640" y="360" as="targetPoint" />
          </mxGeometry>
        </mxCell>
        <mxCell id="ai7vC3b9gsCnExHOe_Bt-58" value="" style="endArrow=classic;startArrow=classic;html=1;rounded=0;fontSize=14;exitX=0.367;exitY=-0.054;exitDx=0;exitDy=0;exitPerimeter=0;" edge="1" parent="1">
          <mxGeometry width="50" height="50" relative="1" as="geometry">
            <mxPoint x="739.55" y="398.99999999999994" as="sourcePoint" />
            <mxPoint x="740.46" y="361.16" as="targetPoint" />
          </mxGeometry>
        </mxCell>
        <mxCell id="ai7vC3b9gsCnExHOe_Bt-59" value="" style="endArrow=classic;startArrow=classic;html=1;rounded=0;fontSize=14;exitX=0.367;exitY=-0.054;exitDx=0;exitDy=0;exitPerimeter=0;" edge="1" parent="1">
          <mxGeometry width="50" height="50" relative="1" as="geometry">
            <mxPoint x="551.55" y="399" as="sourcePoint" />
            <mxPoint x="552.4600000000003" y="361.1600000000001" as="targetPoint" />
          </mxGeometry>
        </mxCell>
        <mxCell id="ai7vC3b9gsCnExHOe_Bt-60" value="" style="endArrow=classic;startArrow=classic;html=1;rounded=0;fontSize=14;exitX=0.458;exitY=-0.05;exitDx=0;exitDy=0;exitPerimeter=0;" edge="1" parent="1" source="ai7vC3b9gsCnExHOe_Bt-46">
          <mxGeometry width="50" height="50" relative="1" as="geometry">
            <mxPoint x="634.55" y="277.84000000000003" as="sourcePoint" />
            <mxPoint x="635.46" y="240" as="targetPoint" />
          </mxGeometry>
        </mxCell>
        <mxCell id="ai7vC3b9gsCnExHOe_Bt-61" value="" style="endArrow=classic;startArrow=classic;html=1;rounded=0;fontSize=14;exitX=0.458;exitY=-0.05;exitDx=0;exitDy=0;exitPerimeter=0;" edge="1" parent="1">
          <mxGeometry width="50" height="50" relative="1" as="geometry">
            <mxPoint x="592.9599999999998" y="318" as="sourcePoint" />
            <mxPoint x="593.4600000000003" y="240" as="targetPoint" />
          </mxGeometry>
        </mxCell>
        <mxCell id="ai7vC3b9gsCnExHOe_Bt-62" value="" style="endArrow=classic;startArrow=classic;html=1;rounded=0;fontSize=14;exitX=0.458;exitY=-0.05;exitDx=0;exitDy=0;exitPerimeter=0;" edge="1" parent="1">
          <mxGeometry width="50" height="50" relative="1" as="geometry">
            <mxPoint x="692.9599999999998" y="319" as="sourcePoint" />
            <mxPoint x="693.4600000000003" y="241" as="targetPoint" />
          </mxGeometry>
        </mxCell>
        <mxCell id="ai7vC3b9gsCnExHOe_Bt-63" value="" style="endArrow=classic;startArrow=classic;html=1;rounded=0;fontSize=14;exitX=0.458;exitY=-0.05;exitDx=0;exitDy=0;exitPerimeter=0;" edge="1" parent="1">
          <mxGeometry width="50" height="50" relative="1" as="geometry">
            <mxPoint x="728.9599999999998" y="319" as="sourcePoint" />
            <mxPoint x="729.4600000000003" y="241" as="targetPoint" />
          </mxGeometry>
        </mxCell>
        <mxCell id="ai7vC3b9gsCnExHOe_Bt-64" value="" style="endArrow=classic;startArrow=classic;html=1;rounded=0;fontSize=14;exitX=0.458;exitY=-0.05;exitDx=0;exitDy=0;exitPerimeter=0;" edge="1" parent="1">
          <mxGeometry width="50" height="50" relative="1" as="geometry">
            <mxPoint x="537.9599999999998" y="320" as="sourcePoint" />
            <mxPoint x="538.4600000000003" y="242" as="targetPoint" />
          </mxGeometry>
        </mxCell>
      </root>
    </mxGraphModel>
  </diagram>
</mxfile>
